<?xml version="1.0" encoding="utf-8"?>
<svg id="univ-white-margin" x="0px" y="0px" viewBox="0 0 500 250" xmlns="http://www.w3.org/2000/svg">

<style type="text/css">
    #shield {
        fill: #FFFFFF;
        stroke: #D2D1D1;
        stroke-dasharray: 2, 2;
    }
</style>

<g>
    <path id="shield" d="m218.20703,30.16406l0,94.83594c0,52.37793 -41.72887,94.83594 -93.20703,94.83594c-51.47816,0 -93.20703,-42.458 -93.20703,-94.83594l0,-94.83594l186.41406,0zm0,0 m-121.25,65-27.44819,0l0,39.71931c0.15365,9.86765 3.34734,22.02001 11.91873,33.78483c8.44517,11.64914 23.67831,21.51679 43.56481,21.32592c19.90295,0.18509 35.1361,-9.68256 43.57578,-21.32592c8.57139,-11.76482 11.77056,-23.92297 11.92971,-33.79061l0,-39.71352l-27.43721,0l0,39.71352c0.14816,2.1806 -1.6627,10.34773 -6.0307,15.89466c-4.49422,5.66262 -10.14079,10.10479 -22.0266,10.2841c-11.88031,-0.18509 -17.53238,-4.62148 -22.02111,-10.2841c-4.37898,-5.54694 -6.17886,-13.71985 -6.0307,-15.89466l0,-39.71352l0.00549,0l-0.00001,0l0.00001,-0.00001l-0.00001,0zm-27.44819,-35.16145c0,0 0,13.61573 0,29.37736l27.44819,0c0,-15.7732 0,-29.38314 0,-29.38314l-27.45917,0.00579l0.01097,0l0.00001,-0.00001zm110.98902,-0.00579l-27.43721,0c0,0 0,13.61573 0,29.38314l27.43721,0c0,-15.7732 0,-29.38314 0,-29.38314z"/>
</g>

</svg>
