<?xml version="1.0" encoding="utf-8"?>
<svg id="univ-large" width="184px" height="200px" viewBox="0 0 184 200" xmlns="http://www.w3.org/2000/svg">

<style type="text/css">
    #shield {
        fill: #E23237;
    }

    #shield_right {
        fill: #B52E31;
    }

    #magnet {
        fill: #FFFFFF;
    }
</style>

<g>
    <path id="shield" d="m176.20703,11.66406l0,88.33594c0,48.78798 -37.69956,88.33594 -84.20703,88.33594c-46.50747,0 -84.20703,-39.54795 -84.20703,-88.33594l0,-88.33594l168.41406,0zm0,0"/>
    <path id="shield_right" d="m176.20703,11.66406l0,88.33594c0,48.78798 -37.69956,88.33594 -84.20703,88.33594l0,-176.67188l84.20703,0z"/>
    <path id="magnet" d="m66.66677,72.21196l-24.79781,0l0,36.99697c0.13881,9.19133 3.02412,20.51077 10.76787,31.46924c7.62971,10.85071 21.39195,20.04204 39.35823,19.86425c17.98114,0.1724 31.74339,-9.01892 39.36814,-19.86425c7.74374,-10.95847 10.634,-22.2833 10.77779,-31.47462l0,-36.99158l-24.78789,0l0,36.99158c0.13385,2.03114 -1.50215,9.6385 -5.44838,14.80525c-4.06026,5.27451 -9.1616,9.41221 -19.89973,9.57923c-10.73316,-0.1724 -15.83947,-4.30473 -19.89477,-9.57923c-3.95615,-5.16676 -5.58223,-12.7795 -5.44838,-14.80525l0,-36.99158l0.00496,0l-0.00001,0l0.00001,-0.00001l-0.00001,0zm-24.79781,-32.75151c0,0 0,12.68252 0,27.36385l24.79781,0c0,-14.69211 0,-27.36924 0,-27.36924l-24.80773,0.00539l0.00991,0l0.00001,-0.00001zm100.27201,-0.00539l-24.78789,0c0,0 0,12.68252 0,27.36924l24.78789,0c0,-14.69211 0,-27.36924 0,-27.36924z"/>
</g>

</svg>
