<?xml version="1.0" encoding="utf-8"?>
<svg id="univ-nav" x="0px" y="0px" viewBox="0 0 269 72" xmlns="http://www.w3.org/2000/svg">

<style type="text/css">
    #shield {
        fill: #DD0031;
    }

    #shield_right {
        fill: #C3002F;
    }

    #magnet {
        fill: #FFFFFF;
    }

    #text {
        fill: #FFFFFF;
        font-size: 24px;
        font-family: Noto Sans JP,sans-serif;
    }
</style>

<g>
    <path id="shield" d="m66.62765,0.24062l0,35.75937c0,19.74991 -14.91463,35.75937 -33.31383,35.75937c-18.3992,0 -33.31383,-16.00945 -33.31383,-35.75937l0,-35.75937l66.62767,0l-0.00001,0zm0,0"/>
    <path id="shield_right" d="m66.62765,0.24062l0,35.75937c0,19.74991 -14.91463,35.75937 -33.31383,35.75937l0,-71.51875l33.31383,0z"/>
    <path id="magnet" d="m23.29154,24.75108l-9.81047,0l0,14.97679c0.05492,3.72075 1.19639,8.30299 4.25996,12.7391c3.01845,4.39249 8.46305,8.11325 15.57083,8.04127c7.11366,0.06979 12.55827,-3.65096 15.57475,-8.04127c3.06357,-4.43611 4.207,-9.02053 4.26388,-12.74128l0,-14.9746l-9.80655,0l0,14.9746c0.05296,0.82223 -0.59428,3.90177 -2.15548,5.99333c-1.60632,2.13518 -3.6245,3.81017 -7.87269,3.87778c-4.24624,-0.06979 -6.26637,-1.7426 -7.87074,-3.87778c-1.56512,-2.09157 -2.20843,-5.17328 -2.15548,-5.99333l0,-14.9746l0.00197,0l0,0l0,0l0,0l0.00003,0zm-9.81047,-13.25817c0,0 0,5.13402 0,11.0772l9.81047,0c0,-5.94753 0,-11.07937 0,-11.07937l-9.81439,0.00218l0.00392,0l0,0l0,-0.00001zm39.66943,-0.00218l-9.80655,0c0,0 0,5.13402 0,11.07937l9.80655,0c0,-5.94753 0,-11.07937 0,-11.07937z"/>
    <text id="text" x="235.96218" y="65.1771" transform="matrix(1.83331 0 0 1.86031 -358.576 -66.413)">NIVTECH</text>
</g>

</svg>
